<svg width="644.605" height="113.967" viewBox="0 0 644.605 113.967" xmlns="http://www.w3.org/2000/svg">
	<g id="svgGroup" stroke-linecap="round" fill-rule="evenodd" font-size="9pt" stroke="#000" stroke-width="0.25mm" fill="none" style="stroke:#000;stroke-width:0.25mm;fill:none">
		<path d="M 14.063 5.859 L 30.908 78.882 L 32.959 92.944 L 35.962 80.273 L 57.056 5.859 L 68.921 5.859 L 89.502 80.273 L 92.432 93.164 L 94.702 78.809 L 111.255 5.859 L 125.391 5.859 L 99.536 112.5 L 86.719 112.5 L 64.746 34.79 L 63.062 26.66 L 61.377 34.79 L 38.599 112.5 L 25.781 112.5 L 0 5.859 L 14.063 5.859 Z" id="0" vector-effect="non-scaling-stroke"/>
		<path d="M 133.154 75.073 L 133.154 72.583 A 52.825 52.825 0 0 1 134.426 60.767 A 43.021 43.021 0 0 1 137.659 51.526 A 36.518 36.518 0 0 1 145.116 41.1 A 33.888 33.888 0 0 1 150.256 37.024 A 31.673 31.673 0 0 1 167.798 31.787 A 37.572 37.572 0 0 1 178.016 33.102 A 27.321 27.321 0 0 1 191.821 41.968 Q 198.755 50.205 200.078 64.195 A 73.557 73.557 0 0 1 200.391 71.118 L 200.391 76.758 L 146.704 76.758 Q 146.997 88.477 153.552 95.691 A 21.366 21.366 0 0 0 169.12 102.884 A 27.53 27.53 0 0 0 170.215 102.905 A 29.39 29.39 0 0 0 175.684 102.422 Q 179.416 101.715 182.373 99.976 A 30.452 30.452 0 0 0 190.854 92.512 A 34.531 34.531 0 0 0 191.089 92.212 L 199.365 98.657 A 32.103 32.103 0 0 1 176.036 113.513 A 45.819 45.819 0 0 1 169.482 113.965 A 39.907 39.907 0 0 1 156.962 112.083 A 32.905 32.905 0 0 1 143.262 103.381 A 35.592 35.592 0 0 1 134.191 85.695 A 51.713 51.713 0 0 1 133.154 75.073 Z M 147.144 65.625 L 186.841 65.625 L 186.841 64.6 Q 186.407 56.951 183.563 51.854 A 18.836 18.836 0 0 0 181.274 48.596 A 16.385 16.385 0 0 0 170.367 43.059 A 23.159 23.159 0 0 0 167.798 42.92 A 18.435 18.435 0 0 0 159.09 44.969 A 18.999 18.999 0 0 0 154.028 48.889 A 23.616 23.616 0 0 0 149.417 56.32 Q 148.191 59.388 147.525 63.088 A 45.678 45.678 0 0 0 147.144 65.625 Z" id="1" vector-effect="non-scaling-stroke"/>
		<path d="M 230.786 0 L 230.786 112.5 L 217.236 112.5 L 217.236 0 L 230.786 0 Z" id="2" vector-effect="non-scaling-stroke"/>
		<path d="M 302.93 87.524 L 315.747 87.524 A 23.868 23.868 0 0 1 312.428 98.354 A 29.536 29.536 0 0 1 311.06 100.488 A 30.473 30.473 0 0 1 300.905 109.564 A 36.148 36.148 0 0 1 299.524 110.303 Q 292.31 113.965 284.253 113.965 A 39.105 39.105 0 0 1 272.632 112.321 A 30.653 30.653 0 0 1 258.508 103.162 A 36.181 36.181 0 0 1 250.78 88.494 Q 249.293 83.064 249.015 76.631 A 69.844 69.844 0 0 1 248.95 73.608 L 248.95 71.338 A 54.006 54.006 0 0 1 250.012 60.406 A 42.837 42.837 0 0 1 253.198 50.757 A 33.467 33.467 0 0 1 260.524 40.519 A 31.527 31.527 0 0 1 265.393 36.768 A 32.381 32.381 0 0 1 277.999 32.226 A 42.156 42.156 0 0 1 284.18 31.787 A 36.595 36.595 0 0 1 294.981 33.315 A 29.771 29.771 0 0 1 306.335 39.771 A 28.215 28.215 0 0 1 315.642 58.924 A 37.325 37.325 0 0 1 315.747 60.498 L 302.93 60.498 A 20.322 20.322 0 0 0 301.226 53.593 A 18.119 18.119 0 0 0 297.107 47.864 A 17.959 17.959 0 0 0 284.954 42.933 A 23.36 23.36 0 0 0 284.18 42.92 A 22.903 22.903 0 0 0 277.155 43.944 A 18.011 18.011 0 0 0 268.176 50.354 Q 263.884 55.975 262.838 65.385 A 58.574 58.574 0 0 0 262.5 71.851 L 262.5 74.414 A 53.578 53.578 0 0 0 263.051 82.359 Q 264.262 90.422 268.14 95.508 Q 273.779 102.905 284.253 102.905 Q 291.504 102.905 296.924 98.511 A 16.79 16.79 0 0 0 300.992 93.823 A 15.227 15.227 0 0 0 302.93 87.524 Z" id="3" vector-effect="non-scaling-stroke"/>
		<path d="M 327.393 73.096 L 327.393 72.144 A 50.942 50.942 0 0 1 328.841 59.784 A 42.881 42.881 0 0 1 331.97 51.196 A 35.999 35.999 0 0 1 338.882 41.437 A 32.618 32.618 0 0 1 344.714 36.841 A 33.939 33.939 0 0 1 360.454 31.887 A 41.511 41.511 0 0 1 363.354 31.787 A 37.952 37.952 0 0 1 375.91 33.782 A 32.277 32.277 0 0 1 389.539 42.993 A 38.159 38.159 0 0 1 398.188 60.138 A 56.21 56.21 0 0 1 399.536 72.803 L 399.536 73.755 A 51.895 51.895 0 0 1 398.211 85.7 A 42.956 42.956 0 0 1 395.105 94.519 A 34.274 34.274 0 0 1 386.316 106.02 A 33.344 33.344 0 0 1 382.434 108.838 A 34.089 34.089 0 0 1 367.104 113.813 A 42.147 42.147 0 0 1 363.501 113.965 A 37.695 37.695 0 0 1 350.994 111.97 A 32.301 32.301 0 0 1 337.39 102.759 A 38.291 38.291 0 0 1 328.628 85.177 A 55.958 55.958 0 0 1 327.393 73.096 Z M 341.016 73.755 A 46.195 46.195 0 0 0 341.805 82.559 Q 342.812 87.74 345.101 91.831 A 25.746 25.746 0 0 0 347.131 94.922 A 19.338 19.338 0 0 0 361.155 102.796 A 24.607 24.607 0 0 0 363.501 102.905 A 21.149 21.149 0 0 0 371.658 101.384 Q 376.314 99.458 379.691 95.096 A 24.565 24.565 0 0 0 379.907 94.812 A 27.466 27.466 0 0 0 384.155 86.19 Q 385.3 82.41 385.729 77.868 A 60.914 60.914 0 0 0 385.986 72.144 A 44.789 44.789 0 0 0 385.134 63.148 Q 384.006 57.644 381.383 53.334 A 26.436 26.436 0 0 0 379.797 51.013 Q 373.759 43.116 363.85 42.925 A 25.615 25.615 0 0 0 363.354 42.92 A 20.314 20.314 0 0 0 354.576 44.778 Q 350.517 46.693 347.418 50.584 A 25.263 25.263 0 0 0 347.168 50.903 A 26.485 26.485 0 0 0 342.966 59.196 Q 341.016 65.384 341.016 73.755 Z" id="4" vector-effect="non-scaling-stroke"/>
		<path d="M 416.455 33.252 L 429.272 33.252 L 429.639 42.041 A 28.566 28.566 0 0 1 449.986 31.91 A 39.981 39.981 0 0 1 453.149 31.787 A 33.479 33.479 0 0 1 461.661 32.795 A 20.739 20.739 0 0 1 475.781 44.531 A 30.021 30.021 0 0 1 486.072 35.303 A 27.501 27.501 0 0 1 494.892 32.281 A 36.824 36.824 0 0 1 501.05 31.787 A 35.323 35.323 0 0 1 511.785 33.279 Q 527.226 38.205 527.563 59.399 L 527.563 112.5 L 514.014 112.5 L 514.014 60.205 A 29.69 29.69 0 0 0 513.672 55.538 Q 512.861 50.459 510.132 47.498 Q 506.254 43.291 497.114 43.286 A 40.414 40.414 0 0 0 497.095 43.286 A 20.757 20.757 0 0 0 491.01 44.141 A 16.795 16.795 0 0 0 484.57 47.791 A 17.371 17.371 0 0 0 479.336 56.729 A 23.504 23.504 0 0 0 478.784 59.912 L 478.784 112.5 L 465.161 112.5 L 465.161 60.571 A 25.534 25.534 0 0 0 464.352 53.836 Q 462.239 46.13 454.617 44.053 A 24.283 24.283 0 0 0 448.242 43.286 A 24.001 24.001 0 0 0 440.985 44.313 Q 433.79 46.589 430.336 53.907 A 24.316 24.316 0 0 0 430.005 54.639 L 430.005 112.5 L 416.455 112.5 L 416.455 33.252 Z" id="5" vector-effect="non-scaling-stroke"/>
		<path d="M 544.556 75.073 L 544.556 72.583 A 52.825 52.825 0 0 1 545.827 60.767 A 43.021 43.021 0 0 1 549.06 51.526 A 36.518 36.518 0 0 1 556.518 41.1 A 33.888 33.888 0 0 1 561.658 37.024 A 31.673 31.673 0 0 1 579.199 31.787 A 37.572 37.572 0 0 1 589.418 33.102 A 27.321 27.321 0 0 1 603.223 41.968 Q 610.156 50.205 611.48 64.195 A 73.557 73.557 0 0 1 611.792 71.118 L 611.792 76.758 L 558.105 76.758 Q 558.398 88.477 564.954 95.691 A 21.366 21.366 0 0 0 580.521 102.884 A 27.53 27.53 0 0 0 581.616 102.905 A 29.39 29.39 0 0 0 587.085 102.422 Q 590.817 101.715 593.774 99.976 A 30.452 30.452 0 0 0 602.256 92.512 A 34.531 34.531 0 0 0 602.49 92.212 L 610.767 98.657 A 32.103 32.103 0 0 1 587.438 113.513 A 45.819 45.819 0 0 1 580.884 113.965 A 39.907 39.907 0 0 1 568.364 112.083 A 32.905 32.905 0 0 1 554.663 103.381 A 35.592 35.592 0 0 1 545.593 85.695 A 51.713 51.713 0 0 1 544.556 75.073 Z M 558.545 65.625 L 598.242 65.625 L 598.242 64.6 Q 597.808 56.951 594.964 51.854 A 18.836 18.836 0 0 0 592.676 48.596 A 16.385 16.385 0 0 0 581.768 43.059 A 23.159 23.159 0 0 0 579.199 42.92 A 18.435 18.435 0 0 0 570.491 44.969 A 18.999 18.999 0 0 0 565.43 48.889 A 23.616 23.616 0 0 0 560.819 56.32 Q 559.592 59.388 558.927 63.088 A 45.678 45.678 0 0 0 558.545 65.625 Z" id="6" vector-effect="non-scaling-stroke"/>
		<path d="M 628.158 102.544 A 9.76 9.76 0 0 0 627.759 105.396 Q 627.759 108.765 629.846 111.035 A 6.192 6.192 0 0 0 631.236 112.163 Q 632.305 112.802 633.703 113.084 A 12.194 12.194 0 0 0 636.108 113.306 Q 637.935 113.306 639.376 112.871 A 6.887 6.887 0 0 0 642.444 111.035 Q 644.604 108.765 644.604 105.396 Q 644.604 101.88 642.444 99.536 A 6.511 6.511 0 0 0 641.266 98.53 Q 639.262 97.192 636.108 97.192 Q 634.347 97.192 632.957 97.61 A 6.605 6.605 0 0 0 629.846 99.536 A 7.946 7.946 0 0 0 628.158 102.544 Z" id="7" vector-effect="non-scaling-stroke"/>
	</g>
</svg>